<?xml version="1.0" encoding="UTF-8" standalone="no"?>
<svg
   xmlns:dc="http://purl.org/dc/elements/1.1/"
   xmlns:cc="http://creativecommons.org/ns#"
   xmlns:rdf="http://www.w3.org/1999/02/22-rdf-syntax-ns#"
   xmlns:svg="http://www.w3.org/2000/svg"
   xmlns="http://www.w3.org/2000/svg"
   xmlns:sodipodi="http://sodipodi.sourceforge.net/DTD/sodipodi-0.dtd"
   xmlns:inkscape="http://www.inkscape.org/namespaces/inkscape"
   width="210mm"
   height="297mm"
   viewBox="0 0 210 297"
   version="1.1"
   id="svg8"
   inkscape:version="1.0.2 (e86c8708, 2021-01-15)"
   sodipodi:docname="opensciense-logo.svg">
  <defs
     id="defs2" />
  <sodipodi:namedview
     id="base"
     pagecolor="#ffffff"
     bordercolor="#666666"
     borderopacity="1.0"
     inkscape:pageopacity="0.0"
     inkscape:pageshadow="2"
     inkscape:zoom="0.20378177"
     inkscape:cx="2607.6756"
     inkscape:cy="1001.1452"
     inkscape:document-units="mm"
     inkscape:current-layer="layer1"
     inkscape:document-rotation="0"
     showgrid="false"
     inkscape:window-width="1440"
     inkscape:window-height="855"
     inkscape:window-x="1360"
     inkscape:window-y="23"
     inkscape:window-maximized="1"
     showguides="true"
     inkscape:guide-bbox="true">
    <sodipodi:guide
       position="867.14625,-37.166971"
       orientation="0,-1"
       id="guide1020" />
  </sodipodi:namedview>
  <metadata
     id="metadata5">
    <rdf:RDF>
      <cc:Work
         rdf:about="">
        <dc:format>image/svg+xml</dc:format>
        <dc:type
           rdf:resource="http://purl.org/dc/dcmitype/StillImage" />
        <dc:title></dc:title>
      </cc:Work>
    </rdf:RDF>
  </metadata>
  <g
     inkscape:label="Layer 1"
     inkscape:groupmode="layer"
     id="layer1">
    <rect
       style="opacity:1;fill:#b3b3b3;fill-opacity:1;stroke:#ffffff;stroke-width:0.41351;stroke-linejoin:round;stroke-opacity:1;paint-order:stroke markers fill"
       id="rect943"
       width="233.20818"
       height="224.76883"
       x="-263.64401"
       y="279.72214" />
    <path
       style="fill:#283891;fill-opacity:1;stroke:#283891;stroke-width:0.264583px;stroke-linecap:butt;stroke-linejoin:miter;stroke-opacity:1"
       d="m -150.36085,469.61653 -72.75299,-39.45287 72.65598,-37.78125 72.54685,37.87981 z"
       id="path925"
       sodipodi:nodetypes="ccccc"
       inkscape:export-xdpi="13.476559"
       inkscape:export-ydpi="13.476559" />
    <path
       style="fill:#0f75bc;fill-opacity:1;stroke:#0f75bc;stroke-width:0.264583px;stroke-linecap:butt;stroke-linejoin:miter;stroke-opacity:1"
       d="m -224.73431,336.50422 73.44667,-38.10047 72.06956,38.10047 -72.5286,38.10046 z"
       id="path927"
       inkscape:export-xdpi="13.476559"
       inkscape:export-ydpi="13.476559" />
    <path
       style="fill:#0f75bc;fill-opacity:1;stroke:#0f75bc;stroke-width:0.264583px;stroke-linecap:butt;stroke-linejoin:miter;stroke-opacity:1"
       d="m -146.23817,386.53976 70.28907,-36.39874 -0.0557,71.74496 -68.85626,35.80525 z"
       id="path929"
       sodipodi:nodetypes="ccccc"
       inkscape:export-xdpi="13.476559"
       inkscape:export-ydpi="13.476559" />
    <path
       style="fill:#00aeef;fill-opacity:1;stroke:#00aeef;stroke-width:0.264583px;stroke-linecap:butt;stroke-linejoin:miter;stroke-opacity:1"
       d="m -226.5541,420.36299 70.28907,36.39874 -0.0557,-71.74496 -68.85626,-35.80526 z"
       id="path931"
       sodipodi:nodetypes="ccccc"
       inkscape:export-xdpi="13.476559"
       inkscape:export-ydpi="13.476559" />
    <path
       id="path937"
       style="fill:#ffffff;stroke:#ffffff;stroke-width:1.16735999999999995px;stroke-linecap:butt;stroke-linejoin:miter;stroke-opacity:1"
       d="m -120.6323,440.13475 c -11.2778,0.0284 -20.03394,-8.37389 -18.23875,-30.54572 -0.53374,-28.494 60.885313,-67.83348 58.946773,-10.835 0.616117,20.78327 -23.114663,41.33757 -40.708023,41.38072 z m 4.1573,-10.60401 c 11.02754,-0.0302 25.901725,-14.40302 25.515526,-28.93581 1.215107,-39.85635 -37.281066,-12.34732 -36.946516,7.57723 -1.12522,15.50372 4.36205,21.37794 11.43099,21.35858 z"
       inkscape:export-xdpi="13.476559"
       inkscape:export-ydpi="13.476559" />
    <text
       xml:space="preserve"
       style="font-style:normal;font-weight:normal;font-size:10.5833px;line-height:1.25;font-family:sans-serif;fill:#000000;fill-opacity:1;stroke:none;stroke-width:0.264583"
       x="-185.66634"
       y="488.83481"
       id="text941"><tspan
         sodipodi:role="line"
         id="tspan939"
         x="-185.66634"
         y="488.83481"
         style="stroke-width:0.264583">favicon.png</tspan></text>
    <path
       style="fill:#46c8f4;fill-opacity:1;stroke:#46c8f4;stroke-width:0.568512px;stroke-linecap:butt;stroke-linejoin:miter;stroke-opacity:1"
       d="m 1113.6254,228.11533 c 8.197,4.55477 9.2887,16.31067 1.263,14.86827 -11.7194,-9.2281 -34.729,-4.19564 -35.3282,3.5889 -3.7809,16.60562 28.1771,8.97517 38.685,23.77638 0.6601,1.16837 45.999,-1.63112 46.3244,0.39316 0.2348,1.46176 3.0883,11.75255 0.1468,11.74185 l -36.7136,-0.13357 c -2.5726,-0.009 -1.3511,19.50281 -2.0033,21.50201 -0.2025,0.62272 34.3717,-0.0514 35.1553,0.26606 3.184,1.29013 2.8475,12.43996 -0.1983,12.35618 -4.7859,-0.13162 -23.8852,-0.15214 -34.2967,-0.16173 -0.8406,-7.2e-4 0.648,24.23684 -0.2005,23.96828 -0.8122,-0.25713 38.7736,-0.7986 39.6508,-0.47619 4.4079,1.62006 4.9498,13.19655 0.6745,13.14967 l -50.3116,-0.5515 c -4.109,-0.0451 -5.9421,-7.62765 -5.7792,-11.01518 0.5283,-11.40707 -0.6695,-32.69883 -1.287,-32.48522 -19.7978,6.84864 -38.3967,-0.11419 -43.0169,-4.90785 -7.8901,-6.88415 0.7254,-14.03219 2.9949,-13.58656 6.6026,8.00036 47.3196,16.40526 37.103,-9.29267 -6.6394,-9.70498 -26.5555,-6.02268 -38.8423,-19.22623 -22.847,-34.08804 29.9134,-43.63609 45.9799,-33.774 z"
       id="path1010"
       sodipodi:nodetypes="ccccssssssssssscscccccc"
       inkscape:export-xdpi="7.7850485"
       inkscape:export-ydpi="7.7850485" />
    <path
       style="fill:#283891;fill-opacity:1;stroke:#283891;stroke-width:0.264583px;stroke-linecap:butt;stroke-linejoin:miter;stroke-opacity:1"
       d="m 593.57639,384.85768 -72.75299,-39.45287 72.65598,-37.78125 72.54685,37.87981 z"
       id="path959"
       sodipodi:nodetypes="ccccc"
       inkscape:export-xdpi="7.7850485"
       inkscape:export-ydpi="7.7850485" />
    <path
       style="fill:#0f75bc;fill-opacity:1;stroke:#0f75bc;stroke-width:0.264583px;stroke-linecap:butt;stroke-linejoin:miter;stroke-opacity:1"
       d="m 519.20293,251.74537 73.44667,-38.10047 72.06956,38.10047 -72.5286,38.10046 z"
       id="path961"
       inkscape:export-xdpi="7.7850485"
       inkscape:export-ydpi="7.7850485" />
    <path
       style="fill:#0f75bc;fill-opacity:1;stroke:#0f75bc;stroke-width:0.264583px;stroke-linecap:butt;stroke-linejoin:miter;stroke-opacity:1"
       d="m 597.69907,301.78091 70.28907,-36.39874 -0.0557,71.74496 -68.85626,35.80525 z"
       id="path963"
       sodipodi:nodetypes="ccccc"
       inkscape:export-xdpi="7.7850485"
       inkscape:export-ydpi="7.7850485" />
    <path
       style="fill:#00aeef;fill-opacity:1;stroke:#00aeef;stroke-width:0.264583px;stroke-linecap:butt;stroke-linejoin:miter;stroke-opacity:1"
       d="m 517.38314,335.60414 70.28907,36.39874 -0.0557,-71.74496 -68.85626,-35.80526 z"
       id="path965"
       sodipodi:nodetypes="ccccc"
       inkscape:export-xdpi="7.7850485"
       inkscape:export-ydpi="7.7850485" />
    <path
       id="path967"
       style="fill:#ffffff;stroke:#ffffff;stroke-width:1.16736px;stroke-linecap:butt;stroke-linejoin:miter;stroke-opacity:1"
       d="m 623.30494,355.3759 c -11.2778,0.0284 -20.03394,-8.37389 -18.23875,-30.54572 -0.53374,-28.494 60.88531,-67.83348 58.94677,-10.835 0.61612,20.78327 -23.11466,41.33757 -40.70802,41.38072 z m 4.1573,-10.60401 c 11.02754,-0.0302 25.90172,-14.40302 25.51552,-28.93581 1.21511,-39.85635 -37.28106,-12.34732 -36.94651,7.57723 -1.12522,15.50372 4.36205,21.37794 11.43099,21.35858 z"
       inkscape:export-xdpi="7.7850485"
       inkscape:export-ydpi="7.7850485" />
    <path
       id="path969"
       style="fill:#0f75bc;fill-opacity:1;stroke:#0f75bc;stroke-width:0.885042px;stroke-linecap:butt;stroke-linejoin:miter;stroke-opacity:1"
       d="m 676.34543,266.23716 c -2.53364,0.9428 -5.16305,2.12713 -7.88335,3.57199 l -1.64523,64.35782 c 4.2495,5.82472 12.33209,1.32923 13.16551,-0.55226 l 0.70218,-17.74608 c 59.32058,10.80798 47.17874,-68.82923 -4.33911,-49.63147 z m 7.65362,8.03761 c 29.47539,-11.73244 33.83941,45.54557 -3.27189,31.99982 l 0.34096,-30.64428 c 1.00252,-0.52663 1.98019,-0.97701 2.93102,-1.3557 z"
       inkscape:export-xdpi="7.7850485"
       inkscape:export-ydpi="7.7850485" />
    <path
       id="path971"
       style="fill:#0f75bc;fill-opacity:1;stroke:#0f75bc;stroke-width:0.944339px;stroke-linecap:butt;stroke-linejoin:miter;stroke-opacity:1"
       d="m 739.59833,265.2616 c -6.78947,2.806 -12.94615,7.79752 -16.9425,15.24154 -0.12501,4.02277 -0.62917,16.14607 -0.24307,20.09772 1.35638,13.8845 21.98195,24.43134 50.62828,11.87175 3.60306,-2.40493 4.45018,-7.40854 0.3291,-8.02912 -20.95646,6.18076 -37.74239,8.15096 -38.69368,-7.50145 l 37.76677,-7.28698 c 4.31214,-1.09619 4.76446,-2.13402 5.70207,-3.17907 3.83283,-20.02387 -19.77601,-28.97212 -38.5469,-21.21441 z m 4.31585,7.91259 c 7.97084,-3.42084 18.21613,-2.92692 22.04479,8.01067 -8.25433,1.77224 -18.51928,4.01332 -32.43595,7.05057 l 0.98775,-7.40323 c 1.67729,-3.00092 5.22819,-5.86624 9.40341,-7.65801 z"
       inkscape:export-xdpi="7.7850485"
       inkscape:export-ydpi="7.7850485" />
    <path
       style="fill:#0f75bc;fill-opacity:1;stroke:#0f75bc;stroke-width:0.975817px;stroke-linecap:butt;stroke-linejoin:miter;stroke-opacity:1"
       d="m 1026.256,271.42034 -0.5805,44.57169 c 8.3905,7.42189 12.7734,0.29169 12.7734,0.29169 l 0.1162,-40.63617 c 12.7591,-6.35828 22.1713,-7.0051 29.1466,2.60017 v 35.09648 c 2.5553,9.15757 13.238,3.68398 13.238,3.68398 l -0.2323,-41.75817 c -9.1746,-18.77525 -36.3284,-19.26043 -54.4614,-3.84965 z"
       id="path977"
       sodipodi:nodetypes="ccccccccc"
       inkscape:export-xdpi="7.7850485"
       inkscape:export-ydpi="7.7850485" />
    <path
       id="path994"
       style="fill:#0f75bc;fill-opacity:1;stroke:#0f75bc;stroke-width:0.944339px;stroke-linecap:butt;stroke-linejoin:miter;stroke-opacity:1"
       d="m 984.57722,266.55116 c -6.78952,2.806 -12.94626,7.79751 -16.94255,15.24155 -0.12506,4.02277 -0.62919,16.14605 -0.24304,20.0977 1.35638,13.88449 21.98181,24.43135 50.62827,11.87176 3.6031,-2.40493 4.4502,-7.40854 0.329,-8.02911 -20.95642,6.18075 -37.74231,8.15095 -38.69361,-7.50146 l 37.76681,-7.28698 c 4.3122,-1.09618 4.7645,-2.13402 5.702,-3.17907 3.8328,-20.02387 -19.7759,-28.97212 -38.54688,-21.21441 z m 4.31575,7.9126 c 7.97083,-3.42085 18.21623,-2.92693 22.04483,8.01067 -8.2542,1.77222 -18.51929,4.01331 -32.43591,7.05055 l 0.98768,-7.40323 c 1.67727,-3.00091 5.22824,-5.86622 9.4034,-7.65799 z"
       inkscape:export-xdpi="7.7850485"
       inkscape:export-ydpi="7.7850485" />
    <path
       style="fill:#0f75bc;fill-opacity:1;stroke:#0f75bc;stroke-width:0.975817px;stroke-linecap:butt;stroke-linejoin:miter;stroke-opacity:1"
       d="m 781.27719,271.61735 -0.5806,44.57169 c 8.39052,7.42189 12.77342,0.29169 12.77342,0.29169 l 0.11616,-40.63615 c 12.75914,-6.35828 22.1715,-7.00512 29.14666,2.60015 v 35.09647 c 2.55536,9.15758 13.23802,3.684 13.23802,3.684 l -0.23234,-41.75817 c -9.17458,-18.77526 -36.32841,-19.26044 -54.46138,-3.84965 z"
       id="path996"
       sodipodi:nodetypes="ccccccccc"
       inkscape:export-xdpi="7.7850485"
       inkscape:export-ydpi="7.7850485" />
    <path
       style="fill:#0f75bc;fill-opacity:1;stroke:#0f75bc;stroke-width:0.939602px;stroke-linecap:butt;stroke-linejoin:miter;stroke-opacity:1"
       d="m 940.95388,267.06296 c 4.09045,3.86326 5.52329,11.1796 2.46919,10.76441 -8.34853,-2.90147 -21.32555,-7.77334 -30.23835,-1.07714 -6.36523,5.57384 -10.9189,20.7238 0.6964,27.58849 11.67106,7.36398 22.08156,4.61468 24.2165,3.0552 4.48561,-2.65308 8.67821,4.45468 4.55656,8.15648 -4.09324,1.71147 -54.69349,12.99686 -48.67455,-32.45199 1.20908,-17.81739 29.18994,-25.73227 46.97425,-16.03545 z"
       id="path1000"
       sodipodi:nodetypes="cccccccc"
       inkscape:export-xdpi="7.7850485"
       inkscape:export-ydpi="7.7850485" />
    <path
       style="fill:#0f75bc;fill-opacity:1;stroke:#0f75bc;stroke-width:0.943742px;stroke-linecap:butt;stroke-linejoin:miter;stroke-opacity:1"
       d="m 948.66658,268.77894 c 4.75672,-1.44963 9.51354,-5.53577 14.27027,-4.25344 l 2.03863,47.71237 c 2.82256,2.6886 -15.94163,10.13063 -15.40286,6.28764 1.18905,-8.4814 -0.92412,-49.92384 -0.90604,-49.74657 z"
       id="path1002"
       sodipodi:nodetypes="cccsc"
       inkscape:export-xdpi="7.7850485"
       inkscape:export-ydpi="7.7850485" />
    <path
       id="path1004"
       style="opacity:1;fill:#0f75bc;fill-opacity:1;stroke:#0f75bc;stroke-width:3.17072;stroke-linejoin:round;stroke-opacity:1;paint-order:stroke markers fill"
       d="m 961.94803,249.56194 a 7.3368303,6.3598883 0 0 1 -7.33685,6.35989 7.3368303,6.3598883 0 0 1 -7.33683,-6.35989 7.3368303,6.3598883 0 0 1 7.33683,-6.3599 7.3368303,6.3598883 0 0 1 7.33685,6.3599 z"
       inkscape:export-xdpi="7.7850485"
       inkscape:export-ydpi="7.7850485" />
    <path
       style="fill:#0f75bc;fill-opacity:1;stroke:#0f75bc;stroke-width:0.897218px;stroke-linecap:butt;stroke-linejoin:miter;stroke-opacity:1"
       d="m 883.60659,253.45435 c 4.38757,3.15008 3.18585,7.85848 0.31063,7.89329 -8.14614,-1.61229 -23.87957,-5.80907 -30.98686,1.93632 -2.36369,2.95966 -6.01118,9.69144 3.33527,11.62149 14.26433,3.95373 33.75539,4.82622 37.13587,20.11924 4.56885,27.13125 -34.36498,26.3806 -51.76398,18.44117 -8.70868,-5.26988 0.40919,-11.7014 4.16407,-9.73809 11.73254,4.24692 20.57954,8.27279 31.75659,-0.29284 3.65468,-2.93763 2.58135,-9.72009 -1.47359,-12.7001 -12.79302,-8.50971 -39.85847,1.8965 -39.65127,-25.04741 2.60596,-17.95311 24.63228,-23.28025 47.17327,-12.23314 z"
       id="path1006"
       sodipodi:nodetypes="ccccccccccc"
       inkscape:export-xdpi="7.7850485"
       inkscape:export-ydpi="7.7850485" />
    <g
       id="g1026"
       transform="matrix(1.5172498,0,0,2.0967912,-342.9219,-311.92601)"
       inkscape:export-xdpi="7.7850485"
       inkscape:export-ydpi="7.7850485">
      <text
         xml:space="preserve"
         style="font-style:normal;font-weight:normal;font-size:10.5833px;line-height:1.25;font-family:sans-serif;fill:#0f75bc;fill-opacity:1;stroke:#0f75bc;stroke-width:0.264583;stroke-opacity:1"
         x="645.12567"
         y="333.92355"
         id="text1014"><tspan
           sodipodi:role="line"
           id="tspan1012"
           x="645.12567"
           y="333.92355"
           style="fill:#0f75bc;fill-opacity:1;stroke:#0f75bc;stroke-width:0.264583;stroke-opacity:1">Workshop on Open Science Practices for </tspan></text>
      <text
         xml:space="preserve"
         style="font-style:normal;font-weight:normal;font-size:10.5833px;line-height:1.25;font-family:sans-serif;fill:#00aeef;fill-opacity:1;stroke:#00aeef;stroke-width:0.264583;stroke-opacity:1"
         x="863.41339"
         y="333.68008"
         id="text1018"><tspan
           sodipodi:role="line"
           id="tspan1016"
           x="863.41339"
           y="333.68008"
           style="fill:#00aeef;fill-opacity:1;stroke:#00aeef;stroke-width:0.264583;stroke-opacity:1">Software Engineering</tspan></text>
    </g>
    <rect
       style="opacity:1;fill:#f2f2f2;fill-opacity:1;stroke:#ffffff;stroke-width:0.564999;stroke-linejoin:round;stroke-opacity:1;paint-order:stroke markers fill"
       id="rect1028"
       width="350"
       height="350"
       x="37.652603"
       y="-150.61047"
       inkscape:export-xdpi="25.359066"
       inkscape:export-ydpi="25.359066" />
    <path
       style="fill:#283891;fill-opacity:1;stroke:#283891;stroke-width:0.340706px;stroke-linecap:butt;stroke-linejoin:miter;stroke-opacity:1"
       d="M 212.11338,137.19123 120.58152,85.192587 211.99133,35.397142 303.26384,85.322497 Z"
       id="path30"
       sodipodi:nodetypes="ccccc"
       inkscape:export-xdpi="25.359066"
       inkscape:export-ydpi="25.359066" />
    <path
       style="fill:#0f75bc;fill-opacity:1;stroke:#0f75bc;stroke-width:0.340706px;stroke-linecap:butt;stroke-linejoin:miter;stroke-opacity:1"
       d="m 118.54278,-38.249961 92.4046,-50.216172 90.67201,50.216172 -91.24954,50.216167 z"
       id="path24"
       inkscape:export-xdpi="25.359066"
       inkscape:export-ydpi="25.359066" />
    <path
       style="fill:#0f75bc;fill-opacity:1;stroke:#0f75bc;stroke-width:0.340706px;stroke-linecap:butt;stroke-linejoin:miter;stroke-opacity:1"
       d="m 217.3002,27.696566 88.43195,-47.973309 -0.0701,94.559404 -86.62931,47.191099 z"
       id="path26"
       sodipodi:nodetypes="ccccc"
       inkscape:export-xdpi="25.359066"
       inkscape:export-ydpi="25.359066" />
    <path
       style="fill:#00aeef;fill-opacity:1;stroke:#00aeef;stroke-width:0.340706px;stroke-linecap:butt;stroke-linejoin:miter;stroke-opacity:1"
       d="m 116.25327,72.27537 88.43195,47.97332 -0.0701,-94.559415 -86.62931,-47.191104 z"
       id="path28"
       sodipodi:nodetypes="ccccc"
       inkscape:export-xdpi="25.359066"
       inkscape:export-ydpi="25.359066" />
    <path
       id="path38"
       style="fill:#ffffff;stroke:#ffffff;stroke-width:0.340706px;stroke-linecap:butt;stroke-linejoin:miter;stroke-opacity:1"
       d="m 149.60789,42.296338 c -0.8891,0.004 -1.81179,0.09503 -2.76638,0.281959 l -0.57734,26.922894 c 1.49121,3.120982 4.32751,2.480029 4.61997,1.815114 l 0.2464,-7.385087 c 20.81647,13.793568 16.55573,-21.726994 -1.52265,-21.63488 z m 2.68577,4.585102 c 10.34334,-0.368827 11.87475,24.499131 -1.14816,13.004776 l 0.11965,-12.888304 c 0.3518,-0.06656 0.69487,-0.104517 1.02854,-0.116511 z"
       inkscape:export-xdpi="25.359066"
       inkscape:export-ydpi="25.359066" />
    <path
       id="path871"
       style="fill:#ffffff;stroke:#ffffff;stroke-width:0.514632px;stroke-linecap:butt;stroke-linejoin:miter;stroke-opacity:1"
       d="m 128.32651,24.721433 c -4.70559,-0.01318 -8.35905,3.900497 -7.61,14.228005 -0.22271,13.272342 25.40403,31.59646 24.59519,5.046901 0.25708,-9.680743 -9.64445,-19.254807 -16.98519,-19.274906 z m 1.73461,4.939273 c 4.60117,0.0141 10.80736,6.708852 10.64622,13.478133 0.50698,18.564864 -15.55532,5.751316 -15.41572,-3.529415 -0.46951,-7.221551 1.82003,-9.95772 4.7695,-9.948718 z"
       inkscape:export-xdpi="25.359066"
       inkscape:export-ydpi="25.359066" />
    <path
       id="path874"
       style="fill:#ffffff;stroke:#ffffff;stroke-width:0.340706px;stroke-linecap:butt;stroke-linejoin:miter;stroke-opacity:1"
       d="m 171.48351,51.416841 c -2.10489,0.03242 -4.01361,1.08923 -5.25257,3.540316 -0.0387,1.667894 -0.19505,6.672883 -0.0754,8.397175 0.42052,6.058435 6.81491,13.967148 15.69593,13.527861 1.11703,-0.401725 1.37968,-2.359591 0.10204,-3.315559 -6.49699,-0.941297 -11.70102,-2.946678 -11.99593,-9.679002 l 11.70856,3.313515 c 1.33686,0.267421 1.47709,-0.092 1.76777,-0.372558 1.18826,-7.760425 -6.13101,-15.501358 -11.95043,-15.411748 z m 1.33801,4.050445 c 2.47115,-0.09121 5.64742,1.845033 6.83439,7.08336 -2.55903,-0.648809 -5.7414,-1.440027 -10.05589,-2.51323 l 0.30623,-2.94163 c 0.51999,-0.976923 1.62086,-1.580749 2.91527,-1.6285 z"
       inkscape:export-xdpi="25.359066"
       inkscape:export-ydpi="25.359066" />
    <path
       id="path879"
       style="fill:#ffffff;stroke:#ffffff;stroke-width:0.340706px;stroke-linecap:butt;stroke-linejoin:miter;stroke-opacity:1"
       d="m 279.6133,35.233408 c -4.48462,-0.03783 -11.31435,5.421369 -14.22856,12.813389 -0.31474,1.709227 -0.32852,7.218823 0.0318,8.90596 1.29666,5.978565 11.75293,2.181899 17.47475,-4.598058 1.04853,-0.57475 0.47208,-4.939247 -0.9258,-3.188187 -2.64907,3.29621 -10.79707,10.215097 -12.15198,3.50353 l 13.88397,-9.648346 c 0.70154,-5.480613 -1.20947,-7.764037 -4.08423,-7.788288 z m -2.02849,4.116516 c 2.13138,0.09608 2.37694,2.774772 2.37694,2.774772 0,0 -9.81763,6.3524 -10.53958,6.806159 0,0 0.5814,-5.674293 5.34231,-8.621274 1.1902,-0.736745 2.10987,-0.991671 2.82033,-0.959657 z"
       inkscape:export-xdpi="25.359066"
       inkscape:export-ydpi="25.359066" />
    <path
       style="fill:#ffffff;stroke:#ffffff;stroke-width:0.340706px;stroke-linecap:butt;stroke-linejoin:miter;stroke-opacity:1"
       d="m 185.06687,60.690864 -0.18048,17.394143 c 2.60812,4.152009 3.97051,2.004115 3.97051,2.004115 l 0.0361,-15.91944 c 3.96607,-0.605987 6.89181,0.532799 9.05997,5.331693 v 13.764072 c 0.79432,3.96944 4.11492,3.4032 4.11492,3.4032 l -0.0722,-16.411007 c -2.85184,-8.720532 -11.29236,-12.927963 -16.92883,-9.566776 z"
       id="path881"
       sodipodi:nodetypes="ccccccccc"
       inkscape:export-xdpi="25.359066"
       inkscape:export-ydpi="25.359066" />
    <path
       style="fill:#ffffff;stroke:#ffffff;stroke-width:0.340706px;stroke-linecap:butt;stroke-linejoin:miter;stroke-opacity:1"
       d="m 285.65261,33.086396 0.48313,17.501085 c 4.36147,-0.133816 4.44649,-2.546167 4.37889,-2.38093 l -0.47436,-15.384676 c 1.63824,-2.402861 5.99451,-6.85482 9.83292,-5.931315 v 13.764072 c 0.79432,3.969441 4.72748,-0.554032 4.72748,-0.554032 l -0.0722,-15.929733 c -3.68976,-7.560815 -16.08814,4.46021 -18.87585,8.915529 z"
       id="path883"
       sodipodi:nodetypes="cccccccccc"
       inkscape:export-xdpi="25.359066"
       inkscape:export-ydpi="25.359066" />
    <path
       style="fill:#ffffff;stroke:#ffffff;stroke-width:0.340706px;stroke-linecap:butt;stroke-linejoin:miter;stroke-opacity:1"
       d="m 236.79177,55.81293 c 1.43372,0.568082 0.86245,2.800209 -0.14437,3.327578 -2.79773,0.760878 -8.16655,1.766362 -10.90086,6.352651 -0.92168,1.689747 -2.41331,5.224975 0.79408,4.386349 4.86273,-0.847813 11.65248,-3.94776 12.34469,2.004088 0.72849,10.813677 -12.86608,17.431181 -18.6975,17.129461 -2.87725,-0.70644 0.51823,-5.087967 1.76868,-4.915745 3.96777,-0.270927 6.93328,-0.12231 11.11744,-5.785452 1.37253,-1.910392 1.21452,-4.625947 -0.10833,-5.180427 -4.20203,-1.367036 -14.00276,7.916766 -13.06657,-3.667897 1.48704,-8.158895 9.36234,-14.367766 16.89274,-13.650606 z"
       id="path979"
       sodipodi:nodetypes="ccccccccccc"
       inkscape:export-xdpi="25.359066"
       inkscape:export-ydpi="25.359066" />
    <path
       style="fill:#ffffff;stroke:#ffffff;stroke-width:0.340706px;stroke-linecap:butt;stroke-linejoin:miter;stroke-opacity:1"
       d="m 254.65907,49.762799 c 1.43373,0.568081 2.0897,3.064902 1.08288,3.592271 -2.79773,0.760877 -7.15588,1.804175 -9.8902,6.390463 -1.93234,3.580409 -3.02693,10.443215 0.93847,10.474294 3.99644,0.210958 7.32102,-3.191496 7.97714,-4.272936 1.3946,-2.031885 2.94529,-0.236527 1.69644,2.117555 -1.2909,1.580736 -17.5035,17.317701 -16.71222,-1.550343 -0.065,-7.137937 8.857,-16.48532 14.90749,-16.751304 z"
       id="path981"
       sodipodi:nodetypes="cccccccc"
       inkscape:export-xdpi="25.359066"
       inkscape:export-ydpi="25.359066" />
    <path
       style="fill:#ffffff;stroke:#ffffff;stroke-width:0.340706px;stroke-linecap:butt;stroke-linejoin:miter;stroke-opacity:1"
       d="m 258.16035,47.040232 c 1.51601,-0.59282 3.03203,-2.263825 4.54804,-1.739422 l 0.64973,19.51171 c 0.8996,1.099497 -5.08071,4.142876 -4.90901,2.571301 0.37896,-3.468419 -0.29452,-20.416078 -0.28876,-20.343589 z"
       id="path983"
       sodipodi:nodetypes="cccsc"
       inkscape:export-xdpi="25.359066"
       inkscape:export-ydpi="25.359066" />
    <path
       id="path985"
       style="opacity:1;fill:#ffffff;fill-opacity:1;stroke:#ffffff;stroke-width:1.14469;stroke-linejoin:round;stroke-opacity:1;paint-order:stroke markers fill"
       d="m 262.39325,39.18155 a 2.3383054,2.600842 0 0 1 -2.33831,2.600837 2.3383054,2.600842 0 0 1 -2.3383,-2.600837 2.3383054,2.600842 0 0 1 2.3383,-2.60085 2.3383054,2.600842 0 0 1 2.33831,2.60085 z"
       inkscape:export-xdpi="25.359066"
       inkscape:export-ydpi="25.359066" />
    <path
       style="fill:#46c8f4;fill-opacity:1;stroke:#46c8f4;stroke-width:0.340706px;stroke-linecap:butt;stroke-linejoin:miter;stroke-opacity:1"
       d="m 227.33238,-75.99415 c 3.60399,2.687439 0.69265,9.623759 -3.75392,8.772705 -4.32646,-5.444847 -19.86318,-2.475558 -22.59582,2.117552 -7.35255,9.797775 14.42144,5.29561 16.31519,14.02874 0.0464,0.689361 28.49584,-0.96242 28.07814,0.231983 -0.30161,0.862466 -1.69505,6.934328 -3.48204,6.928011 l -22.30689,-0.07886 c -1.56311,-0.0055 -6.7547,11.507217 -7.75986,12.686816 -0.31307,0.36741 20.93772,-0.03037 21.31812,0.156965 1.54574,0.761218 -2.05069,7.339934 -3.87938,7.290502 -2.87315,-0.07767 -14.49264,-0.08975 -20.8271,-0.09541 -0.51141,-4.58e-4 -6.97789,14.3004117 -7.41275,14.1419625 -0.41632,-0.1517142 23.8443,-0.4711955 24.28017,-0.2809695 2.19031,0.9558746 -1.00109,7.786338 -3.58909,7.758686 l -30.45699,-0.325407 c -2.48745,-0.02662 -1.29681,-4.5005271 -0.16734,-6.4992646 3.79136,-6.7304924 9.53872,-19.2932304 9.09788,-19.1671924 -14.13405,4.040899 -23.33734,-0.06734 -24.69153,-2.895789 -2.70866,-4.061829 4.70987,-8.279375 5.95577,-8.016444 1.58547,4.720439 23.81343,9.67958 25.41127,-5.482945 -1.08941,-5.726205 -14.33243,-3.55355 -17.79513,-11.344007 -3.53818,-20.112908 31.48137,-25.746534 38.2613,-19.927627 z"
       id="path992"
       sodipodi:nodetypes="ccccssssssssssscscccccc"
       inkscape:export-xdpi="25.359066"
       inkscape:export-ydpi="25.359066" />
  </g>
</svg>
